<?xml version="1.0" standalone="no"?>
<!DOCTYPE svg PUBLIC "-//W3C//DTD SVG 20010904//EN"
 "http://www.w3.org/TR/2001/REC-SVG-20010904/DTD/svg10.dtd">
<svg version="1.0" xmlns="http://www.w3.org/2000/svg"
 width="128.000000pt" height="128.000000pt" viewBox="0 0 128.000000 128.000000"
 preserveAspectRatio="xMidYMid meet">
<metadata>
Created by potrace 1.11, written by Peter Selinger 2001-2013
</metadata>
<g transform="translate(0.000000,128.000000) scale(0.100000,-0.100000)"
fill="#000000" stroke="none">
<path d="M606 1250 c-24 -29 -39 -67 -50 -130 -2 -14 -5 -27 -5 -29 -1 -2 -16
19 -33 45 -33 48 -89 94 -115 94 -30 0 -44 -107 -23 -179 9 -33 9 -33 -13 -17
-74 53 -169 80 -180 52 -13 -33 14 -110 59 -173 16 -23 16 -23 -15 -12 -39 14
-156 8 -173 -9 -17 -17 12 -74 57 -109 21 -15 46 -35 57 -43 19 -15 19 -16 -8
-18 -53 -4 -100 -22 -134 -51 -35 -29 -35 -29 -16 -50 23 -25 63 -46 108 -57
18 -4 36 -9 41 -10 4 -1 12 -2 18 -3 6 0 -11 -16 -37 -33 -48 -33 -94 -89 -94
-115 0 -31 105 -45 178 -24 34 10 34 10 18 -12 -48 -64 -78 -163 -54 -178 27
-17 109 10 178 59 23 17 24 16 15 -3 -14 -31 -18 -137 -6 -167 6 -16 17 -28
24 -28 26 0 82 46 115 94 17 26 32 47 33 45 0 -2 2 -13 3 -24 8 -54 30 -109
56 -138 l28 -32 22 20 c27 24 59 94 62 136 3 37 8 35 50 -21 42 -56 101 -91
120 -72 16 16 21 144 7 180 -9 24 -9 25 13 8 73 -52 170 -81 181 -53 3 8 4 23
2 33 -2 11 -4 26 -4 35 -1 8 -17 41 -36 73 -25 42 -30 56 -17 51 30 -14 136
-17 165 -6 15 6 27 17 27 24 0 26 -46 82 -94 114 -26 18 -47 33 -45 34 2 0 13
2 24 3 55 7 124 38 151 67 19 21 19 21 -16 50 -35 30 -91 51 -149 57 -7 1 9
17 35 35 48 32 94 88 94 114 0 30 -126 46 -186 23 -27 -10 -27 -10 -10 12 47
67 74 148 57 176 -14 23 -114 -6 -178 -54 -22 -16 -22 -16 -11 22 12 46 6 150
-10 166 -17 17 -74 -12 -109 -57 -52 -68 -65 -82 -59 -63 12 39 -54 178 -85
178 -4 0 -19 -14 -33 -30z"/>
</g>
</svg>
